<?xml version="1.0" encoding="UTF-8" standalone="no"?><!DOCTYPE svg PUBLIC "-//W3C//DTD SVG 1.1//EN" "http://www.w3.org/Graphics/SVG/1.1/DTD/svg11.dtd"><svg width="100%" height="100%" viewBox="0 0 1015 201" version="1.1" xmlns="http://www.w3.org/2000/svg" xmlns:xlink="http://www.w3.org/1999/xlink" xml:space="preserve" xmlns:serif="http://www.serif.com/" style="fill-rule:evenodd;clip-rule:evenodd;stroke-linejoin:round;stroke-miterlimit:2;"><g transform="matrix(1.07278,0,0,1.07278,-188.008,-137.558)"><g transform="matrix(250,0,0,250,165.575,312.158)"><path d="M0.363,0.01c-0.037,0 -0.074,-0.005 -0.111,-0.014c-0.036,-0.009 -0.07,-0.024 -0.1,-0.042c-0.031,-0.02 -0.056,-0.043 -0.076,-0.072c-0.019,-0.029 -0.03,-0.063 -0.033,-0.102l0.198,0c0.003,0.017 0.011,0.032 0.022,0.044c0.011,0.012 0.025,0.021 0.044,0.027c0.019,0.007 0.042,0.01 0.068,0.01c0.016,0 0.032,-0.002 0.047,-0.006c0.017,-0.004 0.03,-0.01 0.041,-0.019c0.011,-0.009 0.016,-0.022 0.016,-0.038c0,-0.021 -0.009,-0.035 -0.026,-0.043c-0.017,-0.008 -0.038,-0.014 -0.061,-0.018l-0.124,-0.022c-0.043,-0.008 -0.08,-0.021 -0.11,-0.039c-0.031,-0.018 -0.055,-0.042 -0.071,-0.071c-0.016,-0.03 -0.024,-0.065 -0.024,-0.106c0,-0.049 0.014,-0.09 0.041,-0.125c0.027,-0.034 0.063,-0.061 0.11,-0.079c0.046,-0.018 0.098,-0.027 0.156,-0.027c0.063,0 0.116,0.01 0.16,0.029c0.044,0.019 0.078,0.046 0.102,0.081c0.024,0.034 0.036,0.073 0.037,0.118l-0.193,0c-0.002,-0.018 -0.008,-0.033 -0.017,-0.044c-0.009,-0.012 -0.022,-0.02 -0.038,-0.026c-0.016,-0.005 -0.035,-0.008 -0.057,-0.008c-0.036,0 -0.061,0.006 -0.076,0.019c-0.014,0.013 -0.021,0.026 -0.021,0.041c0,0.015 0.006,0.028 0.018,0.038c0.012,0.011 0.033,0.019 0.063,0.024l0.107,0.017c0.051,0.008 0.092,0.022 0.124,0.042c0.032,0.02 0.056,0.045 0.072,0.075c0.015,0.03 0.023,0.064 0.022,0.103c0.001,0.047 -0.013,0.088 -0.04,0.123c-0.027,0.035 -0.064,0.062 -0.111,0.081c-0.047,0.019 -0.1,0.029 -0.159,0.029Z" style="fill:#005da8;fill-rule:nonzero;"/></g><g transform="matrix(250,0,0,250,326.075,312.158)"><path d="M0.068,-0l-0.001,-0.723l0.197,0l0.281,0.403l0,-0.403l0.195,0l0,0.723l-0.175,-0l-0.303,-0.431l0,0.431l-0.194,-0Z" style="fill:#005da8;fill-rule:nonzero;"/></g><g transform="matrix(250,0,0,250,510.45,312.158)"><path d="M0.363,0.01c-0.037,0 -0.074,-0.005 -0.111,-0.014c-0.036,-0.009 -0.07,-0.024 -0.1,-0.042c-0.031,-0.02 -0.056,-0.043 -0.076,-0.072c-0.019,-0.029 -0.03,-0.063 -0.033,-0.102l0.198,0c0.003,0.017 0.011,0.032 0.022,0.044c0.011,0.012 0.025,0.021 0.044,0.027c0.019,0.007 0.042,0.01 0.068,0.01c0.016,0 0.032,-0.002 0.047,-0.006c0.017,-0.004 0.03,-0.01 0.041,-0.019c0.011,-0.009 0.016,-0.022 0.016,-0.038c0,-0.021 -0.009,-0.035 -0.026,-0.043c-0.017,-0.008 -0.038,-0.014 -0.061,-0.018l-0.124,-0.022c-0.043,-0.008 -0.08,-0.021 -0.11,-0.039c-0.031,-0.018 -0.055,-0.042 -0.071,-0.071c-0.016,-0.03 -0.024,-0.065 -0.024,-0.106c0,-0.049 0.014,-0.09 0.041,-0.125c0.027,-0.034 0.063,-0.061 0.11,-0.079c0.046,-0.018 0.098,-0.027 0.156,-0.027c0.063,0 0.116,0.01 0.16,0.029c0.044,0.019 0.078,0.046 0.102,0.081c0.024,0.034 0.036,0.073 0.037,0.118l-0.193,0c-0.002,-0.018 -0.008,-0.033 -0.017,-0.044c-0.009,-0.012 -0.022,-0.02 -0.038,-0.026c-0.016,-0.005 -0.035,-0.008 -0.057,-0.008c-0.036,0 -0.061,0.006 -0.076,0.019c-0.014,0.013 -0.021,0.026 -0.021,0.041c0,0.015 0.006,0.028 0.018,0.038c0.012,0.011 0.033,0.019 0.063,0.024l0.107,0.017c0.051,0.008 0.092,0.022 0.124,0.042c0.032,0.02 0.056,0.045 0.072,0.075c0.015,0.03 0.023,0.064 0.022,0.103c0.001,0.047 -0.013,0.088 -0.04,0.123c-0.027,0.035 -0.064,0.062 -0.111,0.081c-0.047,0.019 -0.1,0.029 -0.159,0.029Z" style="fill:#005da8;fill-rule:nonzero;"/></g><g transform="matrix(125,0,0,125,688.45,312.158)"><path d="M0.068,-0l-0.001,-0.723l0.29,0c0.101,0 0.174,0.016 0.22,0.049c0.046,0.033 0.07,0.08 0.07,0.142c-0.001,0.033 -0.009,0.063 -0.025,0.088c-0.017,0.026 -0.048,0.05 -0.093,0.072c0.032,0.009 0.057,0.021 0.075,0.035c0.018,0.015 0.032,0.03 0.04,0.046c0.008,0.017 0.014,0.033 0.016,0.049c0.002,0.016 0.003,0.031 0.003,0.045c0,0.067 -0.022,0.117 -0.066,0.149c-0.045,0.032 -0.119,0.048 -0.224,0.048l-0.306,0Zm0.195,-0.146l0.117,0c0.029,0 0.051,-0.008 0.065,-0.023c0.014,-0.016 0.022,-0.033 0.022,-0.052c-0.001,-0.013 -0.004,-0.025 -0.011,-0.036c-0.006,-0.01 -0.016,-0.019 -0.028,-0.025c-0.012,-0.006 -0.026,-0.009 -0.042,-0.009l-0.123,0l0,0.145Zm0,-0.295l0.123,0c0.011,0 0.022,-0.002 0.031,-0.005c0.009,-0.003 0.017,-0.008 0.023,-0.014c0.007,-0.006 0.012,-0.013 0.015,-0.021c0.004,-0.008 0.005,-0.017 0.005,-0.026c0,-0.022 -0.007,-0.039 -0.023,-0.051c-0.016,-0.013 -0.036,-0.019 -0.059,-0.019l-0.115,0l-0,0.136Z" style="fill:#f36f21;fill-rule:nonzero;"/></g><g transform="matrix(125,0,0,125,769.388,312.158)"><path d="M0.068,-0l-0.001,-0.723l0.535,0l-0.002,0.161l-0.337,-0l0,0.12l0.282,-0l0,0.157l-0.283,-0l-0,0.123l0.34,-0l0,0.162l-0.535,-0Z" style="fill:#f36f21;fill-rule:nonzero;"/></g><g transform="matrix(125,0,0,125,844.075,312.158)"><path d="M0.068,-0l-0.001,-0.723l0.329,0c0.062,0 0.113,0.01 0.151,0.031c0.038,0.021 0.066,0.049 0.083,0.084c0.017,0.035 0.026,0.074 0.026,0.118c0,0.037 -0.005,0.069 -0.015,0.095c-0.01,0.026 -0.023,0.048 -0.04,0.067c-0.017,0.018 -0.037,0.034 -0.059,0.048l0.127,0.28l-0.2,-0l-0.105,-0.249l-0.102,0l0,0.249l-0.194,-0Zm0.194,-0.394l0.112,0c0.025,0 0.045,-0.01 0.062,-0.029c0.016,-0.02 0.025,-0.042 0.025,-0.065c-0,-0.025 -0.009,-0.046 -0.027,-0.064c-0.018,-0.018 -0.038,-0.027 -0.06,-0.027l-0.112,0l0,0.185Z" style="fill:#f36f21;fill-rule:nonzero;"/></g><g transform="matrix(125,0,0,125,927.013,312.158)"><path d="M0.068,-0l-0.001,-0.723l0.195,0l0,0.563l0.289,-0l0,0.16l-0.483,-0Z" style="fill:#f36f21;fill-rule:nonzero;"/></g><g transform="matrix(125,0,0,125,993.013,312.158)"><rect x="0.068" y="-0.723" width="0.195" height="0.723" style="fill:#f36f21;fill-rule:nonzero;"/></g><g transform="matrix(125,0,0,125,1027.95,312.158)"><path d="M0.068,-0l-0.001,-0.723l0.197,0l0.281,0.403l0,-0.403l0.195,0l0,0.723l-0.175,-0l-0.303,-0.431l0,0.431l-0.194,-0Z" style="fill:#f36f21;fill-rule:nonzero;"/></g><g transform="matrix(125,0,0,125,1128.89,312.158)"></g></g></svg>